{"title":"THE MAN WHO DISTURBED THE UNIVERSE","uid":9724680,"size":1468221440,"categoryP":"video","categoryS":"movies","magnet":"?xt=urn:btih:c62649385a999a94ccaad73a64d3bd7bc1eab2db&amp;dn=THE+MAN+WHO+DISTURBED+THE+UNIVERSE&amp;tr=udp%3A%2F%2Ftracker.openbittorrent.com%3A80&amp;tr=udp%3A%2F%2Fopen.demonii.com%3A1337&amp;tr=udp%3A%2F%2Ftracker.coppersurfer.tk%3A6969&amp;tr=udp%3A%2F%2Fexodus.desync.com%3A6969","seeders":2,"leechers":0,"uploader":"fraxios","files":-1,"time":1394285095,"description":"Mental Hospital of Chania . A cohort hosts the creators of the documentary &quot; ecclesia &quot;, the place where they trade and converse , where some ask katostariko and another asking why . In the place where they manage their beauty and their relationship well .\n\nAnother group of former chronic patients except Psychiatric Hospital now experiencing a painful process of social reintegration and venturing in the context of international trade , a weekly trip to Denmark .\n\nThe film, through the parallel ratio of the two groups , trying to hear the plea of insanity , its chaotic delirium, the crust of a deep sea . Trying to see the dramatic conflict between man and the madness , the deepest despair and utter doubt about any aspect is involved .\n\n&quot;If our life surrounds death, our mental health hovers insanity .&quot; In madness , the man feels that he has nowhere to return to . Not anymore. It was .\n\nHonors at 2nd International Documentary Festival Kalamata (October 2000)\n\nGreek Special Prize for Best Creative Documentary by the International Jury Prize and Best Greek Movie ( equally with the documentary The License ) from the Greek Directors Guild .\n\nDirected by : Stavros Psyllakis\nScenario : Stavros Psyllakis\nResearch Associates : Dr. George Kokkinakos , Dr. Anthony Liodakis Institute Beyond\nPhotographer: Kostas pulse\nMusic: Nick Witte\nSound: Epaminondas CHATZINIKOLA\nImage Editing - Audio : Demosthenes Raptis\nNarration : Apostolis Assimakis\nProduction: Greek Film Center , Stavros Psyllakis\nEditing: Giorgos Triantafyllou\nProduction : Stavros Psyllakis\n\nA co-production with the Greek Film Centre .\n\nFormat                                   : AVI\nFormat/Info                              : Audio Video Interleave\nFile size                                : 1.37 GiB\nDuration                                 : 52mn 18s\nOverall bit rate                         : 3 743 Kbps\nWriting application                      : VirtualDubMod 1.5.4.1 (build 2178/release)\nWriting library                          : VirtualDubMod build 2178/release\n\nVideo\nID                                       : 0\nFormat                                   : MPEG-4 Visual\nFormat profile                           : Advanced Simple@L5\nFormat settings, BVOP                    : 1\nFormat settings, QPel                    : No\nFormat settings, GMC                     : No warppoints\nFormat settings, Matrix                  : Custom\nCodec ID                                 : XVID\nCodec ID/Hint                            : XviD\nDuration                                 : 52mn 18s\nBit rate                                 : 3 480 Kbps\nWidth                                    : 592 pixels\nHeight                                   : 448 pixels\nDisplay aspect ratio                     : 4:3\nFrame rate                               : 25.000 fps\nColor space                              : YUV\nChroma subsampling                       : 4:2:0\nBit depth                                : 8 bits\n\n\n\nScan type                                : Progressive\nCompression mode                         : Lossy\nBits/(Pixel*Frame)                       : 0.525\nStream size                              : 1.27 GiB (93%)\nWriting library                          : XviD 1.2.1 (UTC 2008-12-04)\n\nAudio\nID                                       : 1\nFormat                                   : AC-3\nFormat/Info                              : Audio Coding 3\nMode extension                           : CM (complete main)\nFormat settings, Endianness              : Big\nCodec ID                                 : 2000\nDuration                                 : 52mn 18s\nBit rate mode                            : Constant\nBit rate                                 : 256 Kbps\nChannel(s)                               : 2 channels\nChannel positions                        : Front: L R\nSampling rate                            : 48.0 KHz\nBit depth                                : 16 bits\nCompression mode                         : Lossy\nDelay relative to video                  : 24ms\nStream size                              : 95.8 MiB (7%)\nAlignment                                : Split accross interleaves\nInterleave, duration                     : 96 ms (2.40 video frames)\nInterleave, preload duration             : 96 ms\n\n","torrent":{"xt":"urn:btih:c62649385a999a94ccaad73a64d3bd7bc1eab2db","amp;dn":"THE+MAN+WHO+DISTURBED+THE+UNIVERSE","amp;tr":["udp%3A%2F%2Ftracker.openbittorrent.com%3A80","udp%3A%2F%2Fopen.demonii.com%3A1337","udp%3A%2F%2Ftracker.coppersurfer.tk%3A6969","udp%3A%2F%2Fexodus.desync.com%3A6969"],"infoHash":"c62649385a999a94ccaad73a64d3bd7bc1eab2db","infoHashBuffer":{"type":"Buffer","data":[198,38,73,56,90,153,154,148,204,170,215,58,100,211,189,123,193,234,178,219]},"announce":[],"urlList":[]}}